<svg width="14" height="15" viewBox="0 0 14 15" fill="none" xmlns="http://www.w3.org/2000/svg">
<path d="M4.56763 5.58009C5.37439 5.62818 5.91245 6.25201 5.95329 7.00723C4.98842 7.00723 4.02394 7.00723 3.05945 7.00712C2.95287 6.29188 3.709 5.57147 4.56763 5.58009Z" fill="#453E3F"/>
<path d="M9.12478 14.0722C8.86624 14.1293 8.61747 14.1909 8.36564 14.2351C8.14296 14.2741 7.91745 14.3004 7.69213 14.3201C7.49883 14.3371 7.30362 14.3489 7.10996 14.3423C6.40955 14.3184 5.71891 14.2338 5.04705 14.0174C4.35588 13.7947 3.72129 13.4657 3.14077 13.0339C2.67733 12.6892 2.26947 12.2849 1.89358 11.8451C1.49959 11.3842 1.18054 10.8781 0.924908 10.3313C0.747863 9.9526 0.615353 9.55719 0.521372 9.14901C0.419343 8.70587 0.365545 8.25831 0.341458 7.80345C0.312792 7.26212 0.3626 6.73086 0.451131 6.19894C0.564811 5.51592 0.79719 4.87519 1.12433 4.26856C1.3315 3.88441 1.57008 3.51855 1.86216 3.19247C2.09466 2.93293 2.32642 2.6705 2.58091 2.4334C2.97816 2.06329 3.41892 1.74911 3.89491 1.48357C4.44371 1.17742 5.02325 0.954707 5.63677 0.826444C5.92204 0.766805 6.21321 0.731301 6.50336 0.70029C6.75419 0.673481 7.00792 0.649762 7.2594 0.65721C8.20038 0.685078 9.11282 0.8478 9.97561 1.24796C10.5313 1.50571 11.0409 1.8293 11.5113 2.22081C12.1081 2.71765 12.6199 3.28939 13.0293 3.94755C13.3993 4.54226 13.6686 5.18196 13.8222 5.86881C13.9183 6.29828 13.9904 6.72985 13.9928 7.1709C13.9944 7.4635 14.0103 7.7574 13.989 8.04847C13.9486 8.59999 13.8471 9.14142 13.6728 9.66889C13.4745 10.2689 13.1917 10.8243 12.8347 11.3445C12.513 11.813 12.1302 12.2284 11.714 12.6108C11.1926 13.0899 10.6052 13.4774 9.95712 13.7647C9.68998 13.8831 9.40828 13.9687 9.12478 14.0722ZM3.55949 7.70004C4.65202 7.70004 5.74455 7.70004 6.83264 7.70004C6.84079 7.68607 6.84686 7.68007 6.84771 7.67341C6.85052 7.65158 6.85297 7.62949 6.85286 7.60752C6.8504 7.13229 6.78335 6.6678 6.59505 6.22865C6.33411 5.6201 5.92537 5.14446 5.27445 4.95305C4.16889 4.62793 2.98218 5.03884 2.45067 6.19824C2.01048 7.15843 2.0922 8.12248 2.56046 9.04966C2.82143 9.5664 3.26678 9.8905 3.82472 10.0456C4.32775 10.1854 4.836 10.1847 5.34105 10.053C5.71655 9.95506 6.03696 9.7587 6.30326 9.47621C6.5575 9.20654 6.69889 8.88249 6.76831 8.5099C6.5044 8.5099 6.25109 8.50779 5.99796 8.51345C5.97476 8.51397 5.94089 8.56088 5.93197 8.59199C5.86769 8.8161 5.74107 8.99452 5.55775 9.13708C5.05922 9.52472 4.19191 9.52682 3.65104 9.13096C3.16973 8.7787 3.04537 8.27345 3.05411 7.70004C3.22273 7.70004 3.38007 7.70004 3.55949 7.70004ZM8.55693 9.4727C8.89465 8.97077 9.23237 8.46883 9.57622 7.95778C9.61004 8.00591 9.63357 8.03817 9.65585 8.07127C10.1036 8.73656 10.5521 9.40142 10.9976 10.0682C11.037 10.1273 11.0778 10.1505 11.1492 10.1492C11.4031 10.1447 11.6571 10.1475 11.911 10.1475C11.9866 10.1475 12.0623 10.1475 12.1649 10.1475C11.4738 9.18315 10.7979 8.24023 10.1186 7.29243C10.7228 6.48426 11.324 5.68016 11.9395 4.85687C11.608 4.85687 11.307 4.85976 11.006 4.85492C10.9268 4.85364 10.8802 4.87971 10.8351 4.94368C10.4447 5.49673 10.051 6.04734 9.65804 6.59855C9.63374 6.63265 9.60799 6.66571 9.5763 6.70809C9.5397 6.6553 9.51256 6.61657 9.48583 6.57757C9.11152 6.03134 8.73824 5.48439 8.3609 4.94026C8.33426 4.90185 8.27816 4.86138 8.23499 4.86051C7.9076 4.85397 7.58001 4.85695 7.25248 4.85768C7.24008 4.85771 7.22769 4.865 7.20841 4.87109C7.23633 4.9108 7.25877 4.94397 7.28245 4.97622C7.84435 5.74126 8.40523 6.50704 8.97024 7.26977C9.02331 7.34142 9.02484 7.38554 8.97233 7.45861C8.35624 8.31609 7.74412 9.17642 7.13117 10.0361C7.10873 10.0676 7.08851 10.1007 7.05784 10.1474C7.40319 10.1474 7.72965 10.1491 8.05601 10.1445C8.08671 10.144 8.12555 10.109 8.1458 10.0798C8.28194 9.88325 8.41408 9.68394 8.55693 9.4727Z" fill="#453E3F"/>
</svg>
