<svg width="20" height="22" viewBox="0 0 20 22" fill="none" xmlns="http://www.w3.org/2000/svg">
<path d="M11.666 0.426719L18.416 4.40672C18.483 4.44672 18.543 4.49072 18.596 4.53972L18.605 4.54772L18.711 4.62272C19.086 4.90367 19.3952 5.26309 19.617 5.67589C19.8388 6.08868 19.9678 6.54491 19.995 7.01272L20 7.21572V14.4997C20 15.6747 19.357 16.7557 18.377 17.2927L11.573 21.5947C10.593 22.1327 9.407 22.1327 8.373 21.5627L1.678 17.3257C1.171 17.0479 0.747845 16.6392 0.45269 16.1421C0.157536 15.645 0.00120109 15.0778 1.01976e-06 14.4997V7.21472C-0.000455392 6.64204 0.152302 6.07967 0.442431 5.58592C0.732561 5.09217 1.1495 4.68503 1.65 4.40672L8.425 0.411719C8.92196 0.139086 9.48012 -0.00258837 10.0469 3.58019e-05C10.6138 0.00265997 11.1706 0.149496 11.665 0.426719M11.025 5.76972C10.7212 5.59493 10.3773 5.50177 10.0268 5.49932C9.67636 5.49687 9.33121 5.5852 9.025 5.75572L6.002 7.55972C5.69632 7.73455 5.44251 7.98736 5.26647 8.29235C5.09044 8.59734 4.99848 8.94358 5 9.29572V12.5737C4.99983 12.9308 5.09526 13.2814 5.27639 13.5892C5.45751 13.8969 5.71773 14.1505 6.03 14.3237L8.976 16.2137C9.633 16.5807 10.366 16.5807 10.97 16.2467L14.024 14.2917C14.606 13.9697 15 13.2997 15 12.5717V9.29672L14.995 9.13272C14.974 8.864 14.899 8.60228 14.7744 8.36326C14.6498 8.12423 14.4783 7.91283 14.27 7.74172L14.178 7.67172L14.122 7.62472C14.0913 7.60155 14.0592 7.58018 14.026 7.56072L11.025 5.76972Z" fill="#9883FF"/>
</svg>
